# File created by Blade
# Date/Time:  Fri Jan 16 17:45:47 2015
#---------------------------------------------------------
:version 1.10
:name HOM
:units
  mass 1.0
  length 1.000000
  angle deg
:documentation
     Acclaim Skeleton File
:root
   axis xyz
   order TX TY TZ RX RY RZ
   position 0.000000 0.000000 0.000000
   orientation 0 0 0
:bonedata
   begin
      id 1
      name Spine_dum
      direction 0.000000 1.000000 0.000000
      length 7.170412
      axis 0.0 0.0 0.0 xyz
   end
   begin
      id 2
      name LeftUpLeg_dum
      direction 1.000000 0.000000 0.000000
      length 4.318350
      axis 0.0 0.0 0.0 xyz
   end
   begin
      id 3
      name RightUpLeg_dum
      direction -1.000000 0.000000 0.000000
      length 4.318350
      axis 0.0 0.0 0.0 xyz
   end
   begin
      id 4
      name Spine
      direction 0.000000 1.000000 0.000000
      length 0.000000
      axis 0.0 0.0 0.0 xyz
      dof rx ry rz
   end
   begin
      id 5
      name Spine_dum1
      direction 0.000000 1.000000 0.000000
      length 14.276153
      axis 0.0 0.0 0.0 xyz
   end
   begin
      id 6
      name Spine_dum2
      direction 0.000000 1.000000 0.000000
      length 10.718243
      axis 0.0 0.0 0.0 xyz
   end
   begin
      id 7
      name Spine_dum3
      direction 0.000000 1.000000 0.000000
      length 10.718243
      axis 0.0 0.0 0.0 xyz
   end
   begin
      id 8
      name Head
      direction 0.000000 1.000000 0.000000
      length 4.527550
      axis 0.0 0.0 0.0 xyz
      dof rx ry rz
   end
   begin
      id 9
      name LeftShoulder
      direction 1.000000 0.000000 0.000000
      length 7.058872
      axis 0.0 0.0 -90.0 xyz
      dof rx ry rz
   end
   begin
      id 10
      name LeftArm
      direction 1.000000 0.000000 0.000000
      length 10.955525
      axis 0.0 0.0 -90.0 xyz
      dof rx ry rz
   end
   begin
      id 11
      name LeftForeArm
      direction 1.000000 0.000000 0.000000
      length 8.193716
      axis 0.0 0.0 -90.0 xyz
      dof ry rz rx
   end
   begin
      id 12
      name LeftHand
      direction 0.000000 0.000000 0.000000
      length 0.000000
      axis 0.0 0.0 -90.0 xyz
      dof rx ry rz
   end
   begin
      id 13
      name LeftHand_dum1
      direction 0.000000 0.000000 0.000000
      length 0.000000
      axis 0.0 0.0 -90.0 xyz
   end
   begin
      id 14
      name LeftHand_dum2
      direction 1.000000 0.000000 0.000000
      length 3.937000
      axis 0.0 0.0 -90.0 xyz
   end
   begin
      id 15
      name LeftHandThumb1
      direction 0.000000 0.000000 1.000000
      length 3.937000
      axis 0.0 0.0 -90.0 xyz
      dof rx rz ry
   end
   begin
      id 16
      name RightShoulder
      direction -1.000000 0.000000 0.000000
      length 7.058872
      axis 0.0 0.0 90.0 xyz
      dof rx ry rz
   end
   begin
      id 17
      name RightArm
      direction -1.000000 0.000000 0.000000
      length 10.955525
      axis 0.0 0.0 90.0 xyz
      dof rx ry rz
   end
   begin
      id 18
      name RightForeArm
      direction -1.000000 0.000000 0.000000
      length 8.193716
      axis 0.0 0.0 90.0 xyz
      dof ry rz rx
   end
   begin
      id 19
      name RightHand
      direction 0.000000 0.000000 0.000000
      length 0.000000
      axis 0.0 0.0 90.0 xyz
      dof rx ry rz
   end
   begin
      id 20
      name RightHand_dum1
      direction 0.000000 0.000000 0.000000
      length 0.000000
      axis 0.0 0.0 90.0 xyz
   end
   begin
      id 21
      name RightHand_dum2
      direction -1.000000 0.000000 0.000000
      length 3.937000
      axis 0.0 0.0 90.0 xyz
   end
   begin
      id 22
      name RightHandThumb1
      direction 0.000000 0.000000 1.000000
      length 3.937000
      axis 0.0 0.0 90.0 xyz
      dof rx rz ry
   end
   begin
      id 23
      name LeftUpLeg
      direction 0.000000 -1.000000 0.000000
      length 17.323638
      axis 0.0 0.0 0.0 xyz
      dof rx ry rz
   end
   begin
      id 24
      name LeftLeg
      direction 0.000000 -1.000000 0.000000
      length 16.270368
      axis 0.0 0.0 0.0 xyz
      dof rx ry rz
   end
   begin
      id 25
      name LeftFoot
      direction 0.000000 -0.258819 0.965926
      length 4.922846
      axis 15.0 0.0 0.0 xyz
      dof rx ry rz
   end
   begin
      id 26
      name LeftToeBase
      direction 0.000000 0.000000 1.000000
      length 2.952750
      axis 0.0 0.0 0.0 xyz
      dof rx ry rz
   end
   begin
      id 27
      name RightUpLeg
      direction 0.000000 -1.000000 0.000000
      length 17.323638
      axis 0.0 0.0 0.0 xyz
      dof rx ry rz
   end
   begin
      id 28
      name RightLeg
      direction 0.000000 -1.000000 0.000000
      length 16.270368
      axis 0.0 0.0 0.0 xyz
      dof rx ry rz
   end
   begin
      id 29
      name RightFoot
      direction 0.000000 -0.258819 0.965926
      length 4.922846
      axis 15.0 0.0 0.0 xyz
      dof rx ry rz
   end
   begin
      id 30
      name RightToeBase
      direction 0.000000 0.000000 1.000000
      length 2.952750
      axis 0.0 0.0 0.0 xyz
      dof rx ry rz
   end
:hierarchy
   begin
      root Spine_dum LeftUpLeg_dum RightUpLeg_dum
      Spine_dum Spine
      LeftUpLeg_dum LeftUpLeg
      RightUpLeg_dum RightUpLeg
      Spine Spine_dum1 Spine_dum2 Spine_dum3
      Spine_dum1 Head
      Spine_dum2 LeftShoulder
      Spine_dum3 RightShoulder
      LeftShoulder LeftArm
      LeftArm LeftForeArm
      LeftForeArm LeftHand
      LeftHand LeftHand_dum1 LeftHand_dum2
      LeftHand_dum1 LeftHandThumb1
      RightShoulder RightArm
      RightArm RightForeArm
      RightForeArm RightHand
      RightHand RightHand_dum1 RightHand_dum2
      RightHand_dum1 RightHandThumb1
      LeftUpLeg LeftLeg
      LeftLeg LeftFoot
      LeftFoot LeftToeBase
      RightUpLeg RightLeg
      RightLeg RightFoot
      RightFoot RightToeBase
   end

# File created by Blade
# Date/Time:  Fri Jan 16 17:45:28 2015
# Frame Rate: 120.000 fps
#------------------------------------------------------
:FULLY-SPECIFIED
:DEGREES
834
root -5.552324 35.258531 -10.235418 -3.697965 -4.785718 -5.623639
Spine 1.440488 2.471028 10.546095
Head 4.058903 3.215168 -9.088385
LeftShoulder -19.159477 14.951514 -17.966915
LeftArm 20.650213 -0.073390 -74.119518
LeftForeArm 5.033033 -0.000000 11.461093
LeftHand 2.044957 0.000000 -6.255831
LeftHandThumb1 -26.253704 0.000000 33.147579
RightShoulder 3.058068 2.654432 2.781892
RightArm 17.713214 -18.230643 66.449082
RightForeArm 21.668989 -0.000000 139.610525
RightHand 15.115031 -0.000000 -5.871107
RightHandThumb1 -24.326973 -0.000000 -32.862282
LeftUpLeg 12.809498 14.114258 7.621723
LeftLeg -8.443627 -0.000000 0.000000
LeftFoot -15.242179 26.892524 -8.400181
LeftToeBase 22.926821 -0.000000 -0.000000
RightUpLeg 9.796355 -5.087609 3.975436
RightLeg -4.464776 -0.000000 0.000000
RightFoot -4.126910 -27.673719 3.050053
RightToeBase 13.860108 -0.000000 -0.000000
835
root -5.554299 35.259045 -10.236882 -3.725870 -4.819816 -5.622683
Spine 1.494541 2.448801 10.524769
Head 4.022405 3.293714 -9.039899
LeftShoulder -19.176056 14.922451 -17.978623
LeftArm 20.660985 -0.043446 -74.089991
LeftForeArm 5.069873 -0.000000 11.437728
LeftHand 2.046745 -0.000000 -6.268603
LeftHandThumb1 -26.253704 0.000000 33.147579
RightShoulder 2.926481 2.537713 2.787741
RightArm 17.877705 -18.789086 66.281521
RightForeArm 21.932652 0.000000 137.868862
RightHand 14.692821 -0.000000 -5.291819
RightHandThumb1 -24.326973 -0.000000 -32.862282
LeftUpLeg 12.842899 14.135839 7.634250
LeftLeg -8.438883 -0.000000 0.000000
LeftFoot -15.246445 26.889093 -8.421220
LeftToeBase 22.956322 -0.000000 -0.000000
RightUpLeg 9.817447 -5.059009 3.977577
RightLeg -4.459646 -0.000000 0.000000
RightFoot -4.129627 -27.665161 3.045219
RightToeBase 13.900341 -0.000000 -0.000000
836
root -5.558864 35.259746 -10.238383 -3.742656 -4.862813 -5.628015
Spine 1.514818 2.428653 10.498605
Head 4.048512 3.330368 -9.007483
LeftShoulder -19.181397 14.925736 -17.978478
LeftArm 20.666685 -0.003791 -74.061569
LeftForeArm 5.027059 -0.000000 11.439597
LeftHand 2.034141 0.000000 -6.274561
LeftHandThumb1 -26.253704 0.000000 33.147579
RightShoulder 2.862375 2.357796 2.813151
RightArm 18.035981 -19.355480 66.045030
RightForeArm 22.068423 -0.000000 136.094952
RightHand 14.357091 -0.000000 -4.729006
RightHandThumb1 -24.326973 -0.000000 -32.862282
LeftUpLeg 12.818591 14.331147 7.678144
LeftLeg -8.329579 -0.000000 0.000000
LeftFoot -15.287536 26.751434 -8.382627
LeftToeBase 22.968586 -0.000000 -0.000000
RightUpLeg 9.826159 -5.024083 3.992061
RightLeg -4.451101 -0.000000 0.000000
RightFoot -4.128660 -27.669142 3.046257
RightToeBase 13.882453 -0.000000 -0.000000
837
root -5.562324 35.259918 -10.240020 -3.763593 -4.906489 -5.629766
Spine 1.536706 2.439288 10.452754
Head 4.086774 3.349281 -8.922440
LeftShoulder -19.173272 14.956102 -17.959279
LeftArm 20.703596 -0.010839 -74.065071
LeftForeArm 5.095035 -0.000000 11.445313
LeftHand 2.026311 -0.000000 -6.252973
LeftHandThumb1 -26.253704 0.000000 33.147579
RightShoulder 2.783742 2.216807 2.854801
RightArm 18.176762 -20.019959 65.782073
RightForeArm 22.067531 -0.000000 134.248898
RightHand 13.842998 -0.000000 -4.557389
RightHandThumb1 -24.326973 -0.000000 -32.862282
LeftUpLeg 12.842596 14.350211 7.693502
LeftLeg -8.315973 -0.000000 0.000000
LeftFoot -15.299940 26.767323 -8.395917
LeftToeBase 22.937138 -0.000000 -0.000000
RightUpLeg 9.841089 -4.974291 4.000240
RightLeg -4.447879 -0.000000 0.000000
RightFoot -4.127121 -27.664861 3.062977
RightToeBase 13.862788 -0.000000 -0.000000
